# xmcd
#
# Track frame offsets:
#	150
#	40557
#	53958
#	76005
#	98862
#
# Disc length: 1680 seconds
#
# Revision: 1
# Processed by: cddbd v1.5.2PL0 Copyright (c) Steve Scherf et al.
# Submitted via: audiograbber 1.83.01
#
DISCID=2e068e05
DTITLE=Driftin - ifnallro
DYEAR=2010
DGENRE=Blues
TTITLE0=The Quattor Funky Jam
TTITLE1=Folsom Prison Blues
TTITLE2=Sympathy for the Devil (Spontaeously)
TTITLE3=Bright Light Big City
TTITLE4=Oh Oh Wah
EXTD=
EXTT0=
EXTT1=
EXTT2=
EXTT3=
EXTT4=
PLAYORDER=
